<?xml version="1.0" encoding="UTF-8" standalone="no"?>
<!-- Created with Inkscape (http://www.inkscape.org/) -->

<svg
   xmlns:dc="http://purl.org/dc/elements/1.1/"
   xmlns:cc="http://creativecommons.org/ns#"
   xmlns:rdf="http://www.w3.org/1999/02/22-rdf-syntax-ns#"
   xmlns:svg="http://www.w3.org/2000/svg"
   xmlns="http://www.w3.org/2000/svg"
   xmlns:sodipodi="http://sodipodi.sourceforge.net/DTD/sodipodi-0.dtd"
   xmlns:inkscape="http://www.inkscape.org/namespaces/inkscape"
   width="278"
   height="331"
   id="svg2"
   version="1.1"
   inkscape:version="0.48.2 r9819"
   sodipodi:docname="sepalnote_logo.svg">
  <defs
     id="defs4" />
  <sodipodi:namedview
     id="base"
     pagecolor="#ffffff"
     bordercolor="#666666"
     borderopacity="1.0"
     inkscape:pageopacity="0.0"
     inkscape:pageshadow="2"
     inkscape:zoom="1"
     inkscape:cx="70.712462"
     inkscape:cy="189.6997"
     inkscape:document-units="px"
     inkscape:current-layer="layer1"
     showgrid="false"
     inkscape:window-width="1280"
     inkscape:window-height="752"
     inkscape:window-x="0"
     inkscape:window-y="0"
     inkscape:window-maximized="1"
     fit-margin-top="0"
     fit-margin-left="0"
     fit-margin-right="0"
     fit-margin-bottom="0" />
  <metadata
     id="metadata7">
    <rdf:RDF>
      <cc:Work
         rdf:about="">
        <dc:format>image/svg+xml</dc:format>
        <dc:type
           rdf:resource="http://purl.org/dc/dcmitype/StillImage" />
        <dc:title></dc:title>
      </cc:Work>
    </rdf:RDF>
  </metadata>
  <g
     inkscape:label="Layer 1"
     inkscape:groupmode="layer"
     id="layer1"
     transform="translate(-237.94044,-230.6402)">
    <path
       style="fill:#ffffff;fill-opacity:1;stroke:none"
       d="m 246.07316,315.91047 78.90307,-77.98885 1,76.92819 z"
       id="path3824"
       inkscape:connector-curvature="0"
       sodipodi:nodetypes="cccc" />
    <path
       style="fill:#6700a0;fill-opacity:1;stroke:none"
       d="m 515.94044,396.1402 0,165.5 -139,0 -139,0 0,-112.60566 c 0,-99.28658 0.18648,-113.32531 1.57662,-118.69002 2.20279,-8.50086 4.52581,-12.62225 9.91395,-17.58886 9.01641,-8.31104 21.47897,-11.81998 38.44595,-10.82479 8.31977,0.48799 20.42903,2.4786 26.46475,4.35048 1.54635,0.47958 1.75935,0.24142 1.14099,-1.27575 -0.41815,-1.02597 -1.59708,-6.5904 -2.61984,-12.3654 -5.89933,-33.31056 2.90925,-54.8141 24.78812,-60.51282 4.8399,-1.26064 18.85428,-1.48718 91.99956,-1.48718 l 86.2899,0 0,165.5 z"
       id="path3822"
       inkscape:connector-curvature="0" />
    <g
       style="font-size:104.36314392px;font-style:normal;font-variant:normal;font-weight:normal;font-stretch:normal;line-height:125%;letter-spacing:0px;word-spacing:0px;fill:#ffffff;fill-opacity:1;stroke:none;font-family:Laila;-inkscape-font-specification:Laila"
       id="text2985">
      <path
         d="m 491.79859,347.84229 c -2.1e-4,7.01342 -2.00398,12.64902 -6.01132,16.90683 -3.75727,4.00775 -8.14052,6.01152 -13.14976,6.01132 -4.75914,2e-4 -10.14427,-1.00169 -16.15541,-3.00566 1.00171,-4.00734 1.50265,-7.88965 1.50283,-11.64693 -1.8e-4,-9.26722 -4.88437,-17.78325 -14.65259,-25.5481 -9.51807,-8.01484 -22.91828,-12.02238 -40.20068,-12.02263 -17.03217,2.5e-4 -30.68286,3.63208 -40.9521,10.89551 -10.26941,7.26391 -15.40407,17.03229 -15.404,29.30517 -7e-5,12.02284 5.25983,22.54263 15.7797,31.55942 10.51972,8.76667 23.29376,16.40605 38.32215,22.91815 15.27863,6.51241 30.43215,13.1499 45.46059,19.91249 15.27859,6.76286 28.17786,15.40412 38.69786,25.9238 10.51959,10.26944 15.77949,22.04159 15.7797,35.31649 -2.1e-4,22.29202 -9.76859,40.95213 -29.30517,55.98039 -19.28648,14.77783 -42.45507,22.16673 -69.50585,22.16674 -27.05103,-10e-6 -49.46821,-6.01132 -67.25162,-18.03395 -17.78351,-12.27308 -26.67524,-27.67707 -26.67522,-46.21201 -2e-5,-8.01502 2.25422,-14.52727 6.76273,-19.53678 4.50845,-5.25982 10.51977,-7.88976 18.03396,-7.88985 7.51408,9e-5 13.40016,3.00574 17.65824,9.01697 -5.76091,5.25998 -8.64133,12.64888 -8.64127,22.16674 -6e-5,9.51796 5.25984,18.03399 15.77971,25.54809 10.51972,7.51418 24.92182,11.27125 43.20634,11.27122 18.53476,3e-5 34.56493,-4.75893 48.09054,-14.27687 13.52529,-9.51788 20.28801,-21.16479 20.2882,-34.94079 -1.9e-4,-8.76642 -3.88249,-16.7815 -11.64693,-24.04527 -7.51431,-7.26357 -17.03222,-13.27488 -28.55376,-18.03395 -11.27135,-4.75884 -23.54445,-10.14397 -36.81932,-16.15541 -13.27508,-6.01119 -25.67341,-12.0225 -37.19502,-18.03396 -11.27128,-6.01116 -20.78919,-14.02624 -28.55376,-24.04526 -7.51418,-10.26916 -11.27125,-21.6656 -11.27122,-34.18937 -3e-5,-20.28797 8.8917,-36.94432 26.67522,-49.96908 18.03388,-13.27472 39.44917,-19.91221 64.24596,-19.91249 24.79653,2.8e-4 45.20994,5.13494 61.24029,15.404 16.28045,10.26959 24.42077,22.66792 24.42098,37.19503"
         style="font-size:375.70733643px;fill:#ffffff"
         id="path3865" />
    </g>
  </g>
</svg>
